<svg width="117" height="32" viewBox="0 0 117 32" fill="none" xmlns="http://www.w3.org/2000/svg">
<path d="M17.244 17.4258C17.2111 17.5856 17.1783 17.747 17.1455 17.9068C16.3231 18.0438 15.4975 18.1351 14.6719 18.1857C15.5484 17.9492 16.4068 17.6997 17.244 17.4258Z" fill="#ED1C27"/>
<path d="M35.6231 1.72265C33.2707 8.19277 28.4281 14.0338 21.8926 16.6007C21.8926 16.6007 22.155 15.3181 22.1567 15.3181C27.4619 12.2965 31.0823 6.88571 32.5456 1.08053C33.0624 0.800209 34.4731 0 34.4731 0C34.4731 0 35.2179 1.09845 35.6231 1.72265Z" fill="#ED1C27"/>
<path d="M24.4929 3.9475C24.5405 3.71281 24.6143 3.56614 24.8817 3.54658C26.0267 3.45694 27.1701 3.27278 28.3119 3.28256C29.7226 3.29234 30.656 4.2816 30.8398 5.78097C31.5665 4.27345 32.1374 2.69748 32.5458 1.08239C32.5262 1.06772 32.5065 1.05469 32.4868 1.04165C31.3598 0.277293 30.0721 0.071944 28.7499 0.0165324C26.048 -0.10081 23.4315 0.420711 20.8462 1.12965C20.7084 1.16877 20.5493 1.37738 20.5165 1.5322C20.2885 2.63718 16.248 22.305 16.248 22.305H19.2714C20.1228 22.305 20.8528 21.6531 21.025 20.8155C21.0267 20.8187 24.2961 4.91394 24.4929 3.9475Z" fill="white"/>
<path d="M34.7364 3.88281C32.3283 9.0964 28.2846 13.6776 23.0352 16.1125C31.5376 18.5262 37.1331 10.2128 34.7364 3.88281Z" fill="white"/>
<path d="M15.1942 8.03164C9.01955 2.10423 -1.50717 8.86933 0.180847 16.9301C1.23073 21.9448 6.6934 23.058 11.1144 21.8748C13.9196 21.1251 13.5849 18.4213 13.5849 18.4213C10.0662 19.2297 3.36987 18.5028 3.91942 15.8316C6.62615 16.5862 10.7519 16.7655 13.6472 15.2873C17.4252 13.3577 16.7805 9.80155 15.1942 8.03164ZM12.6056 11.4101C11.6623 13.3446 6.27181 13.3283 4.33117 12.7628C5.54838 10.0183 8.74888 8.37878 11.6836 9.56687C12.5695 9.92704 12.9632 10.6702 12.6056 11.4101Z" fill="white"/>
<path d="M54.0715 7.02475C51.4567 6.17239 48.3201 5.78125 46.0235 5.78125C39.9457 5.78125 36.1202 11.2165 36.299 15.9851C36.3679 17.8154 36.9863 21.9696 42.5523 22.4471C44.0976 22.5791 45.5724 22.3819 46.8634 21.4334C46.8733 21.4253 46.9635 21.3454 46.9422 21.4595C46.8962 21.7251 46.7929 22.3086 46.7929 22.3086C46.7929 22.3086 49.6948 22.3086 51.0712 22.3086C51.3304 22.3086 51.3664 22.1309 51.4042 21.95C52.3934 17.1423 53.3891 12.3443 54.3668 7.53324C54.4292 7.2301 54.3685 7.11928 54.0715 7.02475ZM49.3553 9.88986C48.8336 12.3687 48.3283 14.8508 47.8018 17.3313C47.7558 17.5448 47.6443 17.7388 47.4802 17.8838C46.2302 18.9888 44.7735 19.3522 43.1462 18.9806C40.0261 18.2684 40.5379 13.873 41.6304 11.7527C42.6262 9.82304 44.8769 8.73273 47.1686 9.02772C49.4619 9.32107 49.4143 9.60139 49.3553 9.88986Z" fill="white"/>
<path d="M107.58 11.5815C107.261 7.78748 104.245 5.78125 100.627 5.78125C93.0378 5.78125 90.5312 12.0802 90.7625 16.4578C90.984 20.6609 94.7259 22.6182 98.4956 22.2678C101.998 22.0609 104.629 20.4719 106.257 17.359C107.198 15.5549 107.808 13.653 107.58 11.5815ZM97.1143 18.7101C93.7744 18.0272 94.9063 13.6383 95.6035 12.3443C97.2866 9.2184 99.5799 9.07498 100.884 9.28033C102.607 9.54924 103.584 10.7716 103.487 12.8365C103.341 15.9623 101.001 19.5038 97.1143 18.7101Z" fill="white"/>
<path d="M54.0254 29.619L54.5913 26.8338C54.6766 26.5078 54.9834 26.2757 55.3197 26.2658C57.0159 26.2181 57.5966 25.9218 58.4447 24.9966C59.0927 24.1703 59.5832 23.5069 60.1278 22.7431C60.2 22.6427 60.2066 22.4632 60.1803 22.3315C59.2617 17.6515 56.9437 5.77785 56.9437 5.77785C56.9437 5.77785 61.1695 5.73999 61.4353 7.44211C61.9454 10.7015 63.1528 17.291 63.2102 17.5511C63.3595 17.2927 67.3113 10.4842 69.1601 7.21988C70.0673 5.61817 73.5237 5.77785 74.6654 5.77785C71.2582 11.4916 64.6407 22.5719 63.6088 24.2937C60.9284 28.7614 58.5694 29.6536 56.0989 29.6223C55.4263 29.6141 54.0254 29.619 54.0254 29.619Z" fill="white"/>
<path d="M87.6861 17.7497C87.4466 18.9117 87.0119 21.0255 86.9972 21.1005C86.9726 21.2243 86.9201 21.3612 86.7544 21.4231C84.4725 22.2706 82.0365 22.6699 79.8202 21.8893C72.6482 19.3664 74.5741 7.91738 82.0643 6.09532C85.7422 5.20058 89.4103 6.49624 89.5891 6.55165C89.7974 6.61684 89.927 6.82545 89.8843 7.03731C89.7548 7.67455 89.343 9.69218 89.3249 9.76552C87.2498 9.09895 85.0696 8.61655 82.9502 9.35645C78.7375 10.8298 77.8222 18.0104 82.0119 18.8514C84.0198 19.2556 85.8571 18.5483 87.6861 17.7497Z" fill="white"/>
<path fill-rule="evenodd" clip-rule="evenodd" d="M109.056 27.832C109.075 27.9841 109.056 28.6349 108.443 29.528C107.802 30.5114 108.816 32.1551 110.863 31.7371C111.314 31.8938 111.799 31.9176 112.112 31.9128C112.426 31.9128 112.916 31.8939 113.366 31.7418C115.414 32.1599 116.423 30.5114 115.781 29.528C115.164 28.6396 115.149 27.9841 115.169 27.832H109.065H109.056Z" fill="#E5252B"/>
<path fill-rule="evenodd" clip-rule="evenodd" d="M112.108 31.8991C110.113 31.8469 109.751 30.9554 110.299 30.7704C110.622 30.6613 111.042 30.4811 111.042 30.4811C110.827 29.4757 111.179 28.1906 112.113 28.1953C113.047 28.1953 113.384 29.5184 113.174 30.5048C113.174 30.5048 113.6 30.6519 113.913 30.7752C114.436 30.9696 114.103 31.8516 112.108 31.9038" fill="#0682C4"/>
<path fill-rule="evenodd" clip-rule="evenodd" d="M111.361 31.1973C110.829 29.7627 111.298 28.418 112.113 28.418C112.889 28.4227 113.417 29.7248 112.87 31.1926C112.87 31.1926 112.611 31.1357 112.089 31.1357C111.698 31.1357 111.366 31.1973 111.366 31.1973" fill="#FFE11B"/>
<path fill-rule="evenodd" clip-rule="evenodd" d="M112.103 31.9217C112.909 31.9217 113.539 31.7559 113.539 31.5238C113.539 31.2916 112.909 31.1211 112.103 31.1211C111.298 31.1211 110.668 31.2869 110.668 31.5238C110.668 31.7606 111.298 31.9217 112.103 31.9217Z" fill="#F49824"/>
<path fill-rule="evenodd" clip-rule="evenodd" d="M109.449 28.543H110.417C110.568 28.543 110.691 28.6616 110.691 28.8087V29.4397C110.691 29.5916 110.568 29.7102 110.417 29.7102H109.449C109.297 29.7102 109.17 29.5916 109.17 29.4397V28.8087C109.17 28.6616 109.292 28.543 109.449 28.543Z" fill="#0682C4"/>
<path d="M109.557 28.6992H110.317C110.434 28.6992 110.527 28.789 110.527 28.8978V29.3563C110.527 29.4698 110.434 29.5596 110.317 29.5596H109.557C109.44 29.5596 109.348 29.4698 109.348 29.3563V28.8978C109.348 28.789 109.44 28.6992 109.557 28.6992Z" fill="#231F20"/>
<path fill-rule="evenodd" clip-rule="evenodd" d="M110.524 29.238C110.182 29.2053 110.066 28.817 110.037 28.6953H110.317C110.433 28.6953 110.524 28.7842 110.524 28.8918V29.2334V29.238Z" fill="#FFE11B"/>
<path fill-rule="evenodd" clip-rule="evenodd" d="M109.841 28.6992C109.822 28.8115 109.711 29.2232 109.35 29.2419V28.8957C109.35 28.7881 109.441 28.6992 109.557 28.6992H109.841Z" fill="#FFE11B"/>
<path fill-rule="evenodd" clip-rule="evenodd" d="M113.807 28.543H114.77C114.922 28.543 115.049 28.6616 115.049 28.8087V29.4397C115.049 29.5916 114.927 29.7102 114.77 29.7102H113.807C113.655 29.7102 113.533 29.5916 113.533 29.4397V28.8087C113.533 28.6616 113.655 28.543 113.807 28.543Z" fill="#0682C4"/>
<path d="M113.921 28.6992H114.686C114.803 28.6992 114.896 28.789 114.896 28.8978V29.3563C114.896 29.4698 114.803 29.5596 114.686 29.5596H113.921C113.809 29.5596 113.717 29.4698 113.717 29.3563V28.8978C113.717 28.789 113.809 28.6992 113.921 28.6992Z" fill="#231F20"/>
<path fill-rule="evenodd" clip-rule="evenodd" d="M114.887 29.238C114.545 29.2053 114.429 28.817 114.4 28.6953H114.685C114.801 28.6953 114.892 28.7842 114.892 28.8918V29.2334L114.887 29.238Z" fill="#FFE11B"/>
<path fill-rule="evenodd" clip-rule="evenodd" d="M114.201 28.6992C114.177 28.8115 114.071 29.2232 113.709 29.2419V28.8957C113.709 28.7881 113.801 28.6992 113.911 28.6992H114.201Z" fill="#FFE11B"/>
<path fill-rule="evenodd" clip-rule="evenodd" d="M114.116 25.3836C114.013 25.0483 113.994 24.883 114.31 24.883H115.006C115.43 24.8736 115.254 25.1947 115.216 25.5063C115.162 25.9172 115.162 26.0447 115.162 26.0447C115.162 26.0447 114.116 25.393 114.116 25.3883" fill="#E5252B"/>
<path fill-rule="evenodd" clip-rule="evenodd" d="M112.104 27.7971C111.06 27.7971 109.63 27.8873 108.709 27.9538C108.004 28.0061 107.455 27.4835 107.925 26.9895C108.93 25.9348 111.374 24.6094 112.114 24.6094C112.902 24.6094 115.298 25.9348 116.302 26.9895C116.772 27.4835 116.302 27.9538 115.587 27.9538C114.798 27.9538 113.147 27.7971 112.104 27.7971Z" fill="#F49824"/>
<path d="M112.674 30.1578C112.674 30.0837 112.731 30.0234 112.808 30.0234C112.884 30.0234 112.937 30.0837 112.937 30.1578C112.937 30.232 112.879 30.2876 112.808 30.2876C112.736 30.2876 112.674 30.2274 112.674 30.1578Z" fill="#231F20"/>
<path fill-rule="evenodd" clip-rule="evenodd" d="M112.107 31.0969C111.691 31.0969 111.357 31.1586 111.357 31.1586C110.863 29.7572 111.313 28.4413 112.107 28.4413C112.901 28.4413 113.356 29.7619 112.856 31.1586C112.856 31.1586 112.538 31.0969 112.107 31.0969ZM112.842 31.2061C113.253 31.2679 113.528 31.3867 113.528 31.5197C113.528 31.7192 112.896 31.8855 112.112 31.8855C111.328 31.8855 110.696 31.7192 110.696 31.5197C110.696 31.3867 110.966 31.2679 111.377 31.2061C111.377 31.2061 111.823 31.1539 112.112 31.1539C112.401 31.1539 112.847 31.2061 112.847 31.2061M112.905 31.1634C113.425 29.7097 112.92 28.3747 112.112 28.3795C111.304 28.3795 110.799 29.7144 111.318 31.1634C110.917 31.2394 110.652 31.3677 110.652 31.5197C110.652 31.5672 110.681 31.6099 110.73 31.6527C110.054 31.3677 109.991 30.8973 110.363 30.7691C110.681 30.6598 111.073 30.5125 111.073 30.5125C110.868 29.5339 111.186 28.2227 112.117 28.2227C113.047 28.2227 113.366 29.5339 113.155 30.5125C113.155 30.5125 113.542 30.6646 113.866 30.7691C114.228 30.8878 114.174 31.3582 113.503 31.6479C113.552 31.6052 113.577 31.5624 113.577 31.5149C113.577 31.3677 113.312 31.2346 112.91 31.1586M114.159 25.3771C114.081 25.0683 114.076 24.94 114.35 24.94H114.953C115.35 24.9353 115.188 25.2298 115.154 25.5291C115.134 25.7096 115.12 25.8569 115.115 25.9662C114.796 25.7476 114.473 25.5528 114.164 25.3771M113.464 31.724C115.384 32.0375 116.32 30.4793 115.707 29.5339C115.232 28.8498 115.12 28.275 115.105 27.9804C113.846 27.9187 112.979 27.8569 112.112 27.8474C111.245 27.8569 110.378 27.9187 109.119 27.9804C109.099 28.275 108.987 28.8498 108.511 29.5339C107.899 30.4793 108.835 32.0375 110.755 31.724C109.942 31.4247 109.839 30.9164 110.275 30.7501C110.593 30.6313 111.019 30.4793 111.019 30.4793C110.809 29.4721 111.176 28.142 112.107 28.142C113.043 28.142 113.41 29.4674 113.194 30.4793C113.194 30.4793 113.621 30.6313 113.939 30.7501C114.375 30.9116 114.272 31.4247 113.459 31.724M112.112 27.7239C111.029 27.7381 110.005 27.8142 108.8 27.8902C108.051 27.9377 107.63 27.4531 108.1 26.9495C108.796 26.2132 111.171 24.693 112.112 24.693C113.052 24.693 115.423 26.2132 116.124 26.9495C116.594 27.4484 116.173 27.9377 115.428 27.8902C114.223 27.8142 113.194 27.7429 112.117 27.7239M114.022 25.2963C114.012 25.2678 114.003 25.2346 113.998 25.2061C113.944 25.0255 113.998 24.826 114.316 24.826H115.017C115.428 24.826 115.384 25.1015 115.311 25.3676C115.262 25.5576 115.222 25.7999 115.203 26.0279C115.203 26.0279 115.776 26.4365 116.094 26.6978C117.094 27.5196 116.442 28.0517 115.487 28.0089C115.389 28.0042 115.296 27.9994 115.203 27.9947C115.208 28.2655 115.291 28.769 115.732 29.3439C116.839 30.6313 115.369 32.2465 113.297 31.7905C112.954 31.8997 112.411 31.952 112.112 31.952C111.813 31.952 111.269 31.8997 110.921 31.7905C108.849 32.2465 107.38 30.6313 108.487 29.3439C108.928 28.7738 109.011 28.2702 109.016 27.9947L108.737 28.0089C107.782 28.0564 107.13 27.5196 108.129 26.6978C109.618 25.4816 111.416 24.579 112.112 24.5742C112.494 24.5742 113.209 24.8545 114.022 25.3011" fill="#231F20"/>
<path d="M110.41 29.7369H109.444C109.273 29.7369 109.137 29.6043 109.137 29.4387V28.8091C109.137 28.6482 109.273 28.5156 109.444 28.5156H110.41C110.576 28.5156 110.712 28.6482 110.712 28.8091V29.4387C110.712 29.6043 110.576 29.7369 110.41 29.7369ZM109.449 28.5724C109.312 28.5724 109.2 28.6813 109.2 28.8091V29.4387C109.2 29.5712 109.312 29.6801 109.449 29.6801H110.415C110.551 29.6801 110.659 29.5712 110.659 29.4387V28.8091C110.659 28.6766 110.547 28.5724 110.415 28.5724H109.449Z" fill="#231F20"/>
<path d="M114.773 29.7369H113.812C113.646 29.7369 113.51 29.6043 113.51 29.4387V28.8091C113.51 28.6482 113.646 28.5156 113.812 28.5156H114.773C114.944 28.5156 115.081 28.6482 115.081 28.8091V29.4387C115.081 29.6043 114.944 29.7369 114.773 29.7369ZM113.807 28.5724C113.671 28.5724 113.563 28.6813 113.563 28.8091V29.4387C113.563 29.5712 113.676 29.6801 113.807 29.6801H114.768C114.905 29.6801 115.017 29.5712 115.017 29.4387V28.8091C115.017 28.6766 114.905 28.5724 114.768 28.5724H113.807Z" fill="#231F20"/>
</svg>
